<svg width="108" height="108" viewBox="0 0 108 108" fill="none" xmlns="http://www.w3.org/2000/svg">
<circle cx="54" cy="54" r="54" fill="#2271C5"/>
<path d="M65.4286 55.2395L68.1601 60.7198L74.0001 61.5989L69.7144 65.5993L70.8158 71.5192L65.4286 68.1893L60.0415 71.5192L61.1429 65.5993L56.8572 61.5989L62.8572 60.7198L65.4286 55.2395ZM39.7144 53.7595H48.2858V56.7195H39.7144V53.7595ZM39.7144 47.8396H54.0001V50.7996H39.7144V47.8396ZM39.7144 41.9197H54.0001V44.8797H39.7144V41.9197Z" fill="white"/>
<path d="M54 68.5594H36.8571V38.9599H71.1429V53.7597H74V38.9599C74 38.1749 73.699 37.422 73.1632 36.8669C72.6273 36.3119 71.9006 36 71.1429 36H36.8571C36.0994 36 35.3727 36.3119 34.8368 36.8669C34.301 37.422 34 38.1749 34 38.9599V68.5594C34 69.3444 34.301 70.0973 34.8368 70.6524C35.3727 71.2075 36.0994 71.5193 36.8571 71.5193H54V68.5594Z" fill="white"/>
</svg>
