<svg width="41" height="40" viewBox="0 0 41 40" fill="none" xmlns="http://www.w3.org/2000/svg">
<circle cx="20.5" cy="20" r="20" fill="#272674"/>
<path d="M20.4827 9.19508C20.4194 9.13324 20.3442 9.08418 20.2613 9.05071C20.1785 9.01723 20.0897 9 20 9C19.9103 9 19.8215 9.01723 19.7387 9.05071C19.6558 9.08418 19.5806 9.13324 19.5173 9.19508C18.7932 9.90161 17.0573 11.9362 15.5 14.3785C13.9591 16.7955 12.5 19.7571 12.5 22.2817C12.5 24.7306 13.22 26.7333 14.5591 28.1304C15.8995 29.5315 17.7964 30.25 20 30.25C22.2023 30.25 24.0991 29.5315 25.4409 28.1304C26.7814 26.7333 27.5 24.7306 27.5 22.2817C27.5 19.7557 26.0409 16.7968 24.5 14.3785C22.9427 11.9349 21.2068 9.90293 20.4827 9.19508Z" fill="white"/>
</svg>
