<svg width="40" height="40" viewBox="0 0 40 40" fill="none" xmlns="http://www.w3.org/2000/svg">
<circle cx="20" cy="20" r="20" fill="white"/>
<path d="M19.9827 9.19508C19.9194 9.13324 19.8442 9.08418 19.7613 9.05071C19.6785 9.01723 19.5897 9 19.5 9C19.4103 9 19.3215 9.01723 19.2387 9.05071C19.1558 9.08418 19.0806 9.13324 19.0173 9.19508C18.2932 9.90161 16.5573 11.9362 15 14.3785C13.4591 16.7955 12 19.7571 12 22.2817C12 24.7306 12.72 26.7333 14.0591 28.1304C15.3995 29.5315 17.2964 30.25 19.5 30.25C21.7023 30.25 23.5991 29.5315 24.9409 28.1304C26.2814 26.7333 27 24.7306 27 22.2817C27 19.7557 25.5409 16.7968 24 14.3785C22.4427 11.9349 20.7068 9.90293 19.9827 9.19508Z" fill="#272674"/>
</svg>
