<svg width="80" height="81" viewBox="0 0 80 81" fill="none" xmlns="http://www.w3.org/2000/svg">
<circle cx="40" cy="40.5" r="40" fill="white"/>
<path d="M51.5172 50.4138C53.1169 50.4138 54.4137 49.117 54.4137 47.5173C54.4137 45.9176 53.1169 44.6207 51.5172 44.6207C49.9174 44.6207 48.6206 45.9176 48.6206 47.5173C48.6206 49.117 49.9174 50.4138 51.5172 50.4138Z" fill="#2D3074"/>
<path d="M51.5173 62.0001L44.596 52.7282C43.4514 51.2319 42.8301 49.4011 42.8276 47.5173C42.8276 45.2127 43.7432 43.0024 45.3728 41.3728C47.0024 39.7432 49.2127 38.8276 51.5173 38.8276C53.8219 38.8276 56.0322 39.7432 57.6618 41.3728C59.2914 43.0024 60.2069 45.2127 60.2069 47.5173C60.2038 49.4042 59.5804 51.2377 58.4328 52.7354L51.5173 62.0001ZM51.5173 41.7242C49.9815 41.7261 48.5091 42.3371 47.4231 43.4231C46.3371 44.5091 45.7261 45.9815 45.7242 47.5173C45.7289 48.7733 46.1462 49.993 46.9118 50.9888L51.5173 57.1585L56.117 50.9961C56.8856 49.9988 57.3049 48.7764 57.3104 47.5173C57.3085 45.9815 56.6975 44.5091 55.6115 43.4231C54.5255 42.3371 53.0531 41.7261 51.5173 41.7242Z" fill="#2D3074"/>
<path d="M52.9655 24.3448H48.6207V22.8966C48.6184 22.129 48.3125 21.3936 47.7698 20.8509C47.2271 20.3082 46.4916 20.0023 45.7241 20H34.1379C33.3704 20.0023 32.635 20.3082 32.0923 20.8509C31.5496 21.3936 31.2437 22.129 31.2414 22.8966V24.3448H26.8966C26.129 24.3471 25.3936 24.653 24.8509 25.1957C24.3082 25.7385 24.0023 26.4739 24 27.2414V57.6552C24.0023 58.4227 24.3082 59.1581 24.8509 59.7008C25.3936 60.2435 26.129 60.5494 26.8966 60.5517H39.931V57.6552H26.8966V27.2414H31.2414V31.5862H48.6207V27.2414H52.9655V34.4828H55.8621V27.2414C55.8598 26.4739 55.5539 25.7385 55.0112 25.1957C54.4684 24.653 53.733 24.3471 52.9655 24.3448ZM45.7241 28.6897H34.1379V22.8966H45.7241V28.6897Z" fill="#2D3074"/>
</svg>
