<svg width="80" height="81" viewBox="0 0 80 81" fill="none" xmlns="http://www.w3.org/2000/svg">
<circle cx="40" cy="40.5" r="40" fill="white"/>
<path d="M18.2724 39.3621H37.9069V42.6345H18.2724V39.3621ZM15 31.181H31.3621V34.4534H15V31.181Z" fill="#2D3074"/>
<path d="M60.6814 40.3536L55.7728 28.9002C55.6468 28.6058 55.4372 28.3549 55.1698 28.1786C54.9025 28.0023 54.5893 27.9084 54.2691 27.9086H49.3605V24.6362C49.3605 24.2023 49.1881 23.7861 48.8813 23.4792C48.5744 23.1724 48.1582 23 47.7243 23H21.545V26.2724H46.0881V46.8166C45.3425 47.2495 44.69 47.8258 44.1683 48.5121C43.6465 49.1985 43.2658 49.9813 43.048 50.8155H32.7661C32.3679 49.2731 31.4208 47.9289 30.1023 47.0349C28.7839 46.1408 27.1847 45.7583 25.6044 45.959C24.0242 46.1598 22.5713 46.9299 21.5183 48.1252C20.4652 49.3204 19.8843 50.8587 19.8843 52.4517C19.8843 54.0447 20.4652 55.5829 21.5183 56.7782C22.5713 57.9735 24.0242 58.7436 25.6044 58.9444C27.1847 59.1451 28.7839 58.7626 30.1023 57.8685C31.4208 56.9745 32.3679 55.6303 32.7661 54.0879H43.048C43.4039 55.4922 44.2179 56.7376 45.3612 57.6273C46.5045 58.517 47.9118 59 49.3605 59C50.8092 59 52.2164 58.517 53.3597 57.6273C54.503 56.7376 55.317 55.4922 55.673 54.0879H59.1777C59.6117 54.0879 60.0279 53.9155 60.3347 53.6087C60.6415 53.3018 60.8139 52.8856 60.8139 52.4517V40.9983C60.814 40.7766 60.7689 40.5572 60.6814 40.3536ZM26.4536 55.7241C25.8064 55.7241 25.1737 55.5322 24.6356 55.1726C24.0974 54.813 23.678 54.302 23.4303 53.704C23.1826 53.106 23.1178 52.4481 23.2441 51.8133C23.3703 51.1785 23.682 50.5954 24.1397 50.1378C24.5973 49.6801 25.1804 49.3684 25.8152 49.2422C26.45 49.1159 27.108 49.1807 27.7059 49.4284C28.3039 49.6761 28.8149 50.0955 29.1745 50.6336C29.5341 51.1718 29.726 51.8045 29.726 52.4517C29.7252 53.3193 29.3801 54.1512 28.7666 54.7647C28.1531 55.3782 27.3212 55.7232 26.4536 55.7241ZM49.3605 31.181H53.1892L56.6972 39.3621H49.3605V31.181ZM49.3605 55.7241C48.7133 55.7241 48.0806 55.5322 47.5424 55.1726C47.0043 54.813 46.5849 54.302 46.3372 53.704C46.0895 53.106 46.0247 52.4481 46.151 51.8133C46.2772 51.1785 46.5889 50.5954 47.0465 50.1378C47.5042 49.6801 48.0873 49.3684 48.7221 49.2422C49.3569 49.1159 50.0148 49.1807 50.6128 49.4284C51.2107 49.6761 51.7218 50.0955 52.0814 50.6336C52.441 51.1718 52.6329 51.8045 52.6329 52.4517C52.632 53.3193 52.287 54.1512 51.6735 54.7647C51.06 55.3782 50.2281 55.7232 49.3605 55.7241ZM57.5415 50.8155H55.673C55.3126 49.414 54.4972 48.1717 53.3549 47.2833C52.2125 46.395 50.8076 45.9109 49.3605 45.9069V42.6345H57.5415V50.8155Z" fill="#2D3074"/>
</svg>
