<svg width="80" height="81" viewBox="0 0 80 81" fill="none" xmlns="http://www.w3.org/2000/svg">
<circle cx="40" cy="40.5" r="40" fill="white"/>
<path d="M37.3975 30.1338L31.3082 23.1048C30.6062 22.2948 29.3192 22.2984 28.5038 23.1156L23.4962 28.1322C22.0058 29.6244 21.5792 31.8402 22.4414 33.6167C27.5923 44.2816 36.1934 52.8948 46.8511 58.0606C48.6259 58.9228 50.8399 58.4962 52.3303 57.004L57.3846 51.9406C58.2036 51.1217 58.2054 49.8275 57.3882 49.1255L50.3323 43.0685C49.5943 42.4349 48.4477 42.5177 47.7079 43.2593L45.2527 45.7181C45.127 45.8498 44.9615 45.9367 44.7817 45.9653C44.6019 45.9939 44.4177 45.9627 44.2573 45.8765C40.2441 43.5655 36.9151 40.2321 34.6093 36.2159C34.523 36.0553 34.4917 35.8707 34.5203 35.6906C34.549 35.5105 34.6359 35.3447 34.7677 35.2187L37.2157 32.769C37.9573 32.0238 38.0383 30.8718 37.3975 30.132V30.1338Z" stroke="#272674" stroke-width="3.53806" stroke-linecap="round" stroke-linejoin="round"/>
</svg>
