<svg width="25" height="25" viewBox="0 0 25 25" fill="none" xmlns="http://www.w3.org/2000/svg">
<path d="M4.89861 0C2.20447 0 0 2.20447 0 4.89861V20.1014C0 22.7955 2.20447 25 4.89861 25H20.1014C22.7955 25 25 22.7955 25 20.1014V4.89861C25 2.20447 22.7955 0 20.1014 0H4.89861ZM7.70295 5.64069H12.6344C13.6585 5.64069 14.4365 5.67816 14.9645 5.75865C15.4926 5.83511 15.9886 5.99902 16.4495 6.24844C16.9483 6.51713 17.3229 6.87896 17.5697 7.3272C17.8164 7.77809 17.9415 8.29635 17.9415 8.88561C17.9415 9.56662 17.7716 10.172 17.4291 10.7034C17.0899 11.2347 16.6192 11.6255 16.0207 11.8782V11.9508C16.8819 12.1337 17.5726 12.5017 18.0907 13.0617C18.6096 13.6223 18.8687 14.3769 18.8687 15.3246C18.8687 16.0183 18.7378 16.6302 18.475 17.1549C18.2124 17.6796 17.8607 18.112 17.4158 18.4578C16.8911 18.8702 16.3151 19.1612 15.684 19.3374C15.0569 19.513 14.2602 19.6007 13.2905 19.6007H7.70298V5.64071L7.70295 5.64069ZM11.1908 8.19974V11.1541H11.6321C12.2307 11.1541 12.6536 11.1479 12.8937 11.1353C13.1338 11.1227 13.3837 11.0584 13.6397 10.94C13.9177 10.809 14.1135 10.6271 14.2185 10.3963C14.3243 10.1629 14.3787 9.89333 14.3787 9.58942C14.3787 9.36265 14.321 9.13172 14.2052 8.89498C14.0902 8.65821 13.9114 8.48516 13.6647 8.37942C13.4346 8.27701 13.1625 8.22301 12.8453 8.21304C12.5287 8.20304 12.0583 8.19977 11.4345 8.19977H11.1908L11.1908 8.19974ZM11.1908 13.5452V17.0401H11.3798C12.2923 17.0401 12.9225 17.0332 13.271 17.0205C13.6195 17.0079 13.9785 16.9252 14.3396 16.7682C14.6602 16.6306 14.8903 16.4288 15.038 16.1628C15.185 15.8974 15.2583 15.5964 15.2583 15.2606C15.2583 14.8283 15.1728 14.4924 14.9966 14.249C14.821 14.0029 14.5583 13.8202 14.2092 13.6951C13.9977 13.612 13.703 13.567 13.3319 13.5577C12.9608 13.5484 12.4621 13.5452 11.8376 13.5452H11.1908H11.1908Z" fill="white"/>
</svg>
