<svg width="375" height="2184" viewBox="0 0 375 2184" fill="none" xmlns="http://www.w3.org/2000/svg">
<g clip-path="url(#clip0_448_279)">
<path fill-rule="evenodd" clip-rule="evenodd" d="M-164 2118.96L-127.375 2100.67C-90.75 2083.6 -17.5 2048.23 55.75 2048.23C129 2048.23 202.25 2083.6 275.5 2100.67C348.75 2118.96 422 2118.96 495.25 2110.43C568.5 2100.67 641.75 2083.6 678.375 2075.06L715 2066.53V1908H678.375C641.75 1908 568.5 1908 495.25 1908C422 1908 348.75 1908 275.5 1908C202.25 1908 129 1908 55.75 1908C-17.5 1908 -90.75 1908 -127.375 1908H-164V2118.96Z" fill="#24265B"/>
<path d="M376 512H-3V1908H376V512Z" fill="url(#paint0_linear_448_279)"/>
<g clip-path="url(#clip1_448_279)">
<path fill-rule="evenodd" clip-rule="evenodd" d="M-337 693.229L-306.467 669.246C-262.634 636.9 -166.524 625.278 -78.8575 625.278C8.80914 625.278 101.333 653.706 189 686.052C276.667 720.709 364.333 720.709 452 704.536C539.667 686.052 627.333 653.706 671.167 637.533L715 621.359V321H671.167C627.333 321 539.667 321 452 321C364.333 321 276.667 321 189 321C101.333 321 13.6667 321 -74 321C-161.667 321 -249.333 321 -293.167 321H-337V693.229Z" fill="#2271C5"/>
<path fill-rule="evenodd" clip-rule="evenodd" d="M-175 76.5612L-147.333 70.9271C-119.667 65.2929 -64.3333 54.0246 -9 70.9271C46.3333 87.8295 101.667 132.903 157 155.439C212.333 177.976 267.667 177.976 323 166.707C378.333 155.439 433.667 132.903 489 104.732C544.333 76.5612 627.333 93.4634 655 76.561V87.4629V347H627.333C599.667 347 544.333 347 489 347C433.667 347 378.333 347 323 347C267.667 347 212.333 347 157 347C101.667 347 46.3333 347 -9 347C-64.3333 347 -119.667 347 -147.333 347H-175V76.5612Z" fill="url(#paint1_linear_448_279)"/>
</g>
</g>
<defs>
<linearGradient id="paint0_linear_448_279" x1="186.5" y1="512" x2="186.5" y2="1908" gradientUnits="userSpaceOnUse">
<stop stop-color="#292B65"/>
<stop offset="1" stop-color="#24265B"/>
</linearGradient>
<linearGradient id="paint1_linear_448_279" x1="240" y1="8.9514" x2="240" y2="266.162" gradientUnits="userSpaceOnUse">
<stop stop-color="#2271C5"/>
<stop offset="1" stop-color="#2271C5"/>
</linearGradient>
<clipPath id="clip0_448_279">
<rect width="375" height="2184" fill="white"/>
</clipPath>
<clipPath id="clip1_448_279">
<rect width="375" height="653" fill="white" transform="translate(1 62)"/>
</clipPath>
</defs>
</svg>
