<svg width="108" height="108" viewBox="0 0 108 108" fill="none" xmlns="http://www.w3.org/2000/svg">
<circle cx="54" cy="54" r="54" fill="#2271C5"/>
<path d="M64.9167 68C65.7381 66.0286 65.9584 63.8585 65.5498 61.7623C65.1412 59.6661 64.1221 57.7375 62.6205 56.219C63.0337 55.1778 63.112 54.0337 62.8446 52.9459C62.5773 51.8581 61.9774 50.8807 61.1286 50.1497L64.9456 46.3327C65.4609 45.8166 65.7503 45.1171 65.7503 44.3878C65.7503 43.6585 65.4609 42.959 64.9456 42.4428L61.0571 38.5543C60.541 38.0391 59.8415 37.7496 59.1122 37.7496C58.3829 37.7496 57.6834 38.0391 57.1672 38.5543L39.0557 56.6658C38.5408 57.1821 38.2516 57.8816 38.2516 58.6108C38.2516 59.34 38.5408 60.0394 39.0557 60.5557L42.9442 64.4442C43.4604 64.9595 44.1599 65.2489 44.8892 65.2489C45.6185 65.2489 46.318 64.9595 46.8341 64.4442L53.3997 57.8786C54.3308 58.9553 55.6488 59.6215 57.0679 59.7327C58.487 59.8439 59.8927 59.3912 60.9801 58.4726C62.1106 59.7659 62.8048 61.3824 62.9643 63.0927C63.1237 64.803 62.7403 66.52 61.8684 68H52V73.5H35.5V76.25H68.5V68H64.9167ZM44.8885 62.5L41 58.6101L43.5836 56.0278L47.4721 59.9163L44.8885 62.5ZM52 54.25C52.002 54.5972 52.037 54.9434 52.1045 55.284L49.4164 57.9721L45.5279 54.0836L59.1129 40.4986L63 44.3871L58.5326 48.8558C57.7372 48.698 56.9167 48.7191 56.1304 48.9175C55.3441 49.1159 54.6118 49.4867 53.9865 50.003C53.3612 50.5193 52.8586 51.1682 52.515 51.9028C52.1714 52.6373 51.9955 53.4391 52 54.25ZM57.5 57C56.9561 57 56.4244 56.8387 55.9722 56.5365C55.5199 56.2343 55.1675 55.8048 54.9593 55.3023C54.7512 54.7999 54.6967 54.2469 54.8028 53.7135C54.9089 53.18 55.1709 52.69 55.5555 52.3054C55.9401 51.9208 56.4301 51.6589 56.9635 51.5528C57.497 51.4467 58.0499 51.5012 58.5524 51.7093C59.0549 51.9174 59.4844 52.2699 59.7865 52.7222C60.0887 53.1744 60.25 53.7061 60.25 54.25C60.2493 54.9791 59.9593 55.6781 59.4437 56.1937C58.9282 56.7093 58.2291 56.9992 57.5 57ZM65.75 73.5H54.75V70.75H65.75V73.5Z" fill="white"/>
</svg>
