<svg width="48" height="41" viewBox="0 0 48 41" fill="none" xmlns="http://www.w3.org/2000/svg">
<circle cx="24" cy="20" r="20" fill="#262A66"/>
<path d="M28.8598 28.9998C25.1854 28.9951 21.6629 27.5333 19.0647 24.9351C16.4665 22.337 15.0048 18.8144 15 15.14C15 14.0421 15.4362 12.9891 16.2126 12.2127C16.9889 11.4363 18.042 11.0001 19.1399 11.0001C19.3724 10.9983 19.6046 11.0194 19.8329 11.0631C20.0537 11.0958 20.2707 11.15 20.4809 11.2251C20.6287 11.277 20.7605 11.3665 20.8631 11.4849C20.9657 11.6033 21.0356 11.7464 21.0659 11.9001L22.2989 17.3C22.3321 17.4466 22.3281 17.5991 22.2873 17.7438C22.2464 17.8884 22.1699 18.0205 22.0649 18.128C21.9479 18.254 21.9389 18.263 20.8319 18.839C21.7184 20.7837 23.2738 22.3455 25.2149 23.2399C25.7998 22.1239 25.8088 22.1149 25.9348 21.9979C26.0423 21.8929 26.1744 21.8165 26.3191 21.7756C26.4637 21.7347 26.6163 21.7307 26.7628 21.7639L32.1627 22.9969C32.3115 23.0314 32.4491 23.1033 32.5624 23.2056C32.6758 23.3079 32.7612 23.4374 32.8107 23.5819C32.8867 23.7955 32.9439 24.0154 32.9817 24.2389C33.018 24.4651 33.036 24.6938 33.0357 24.9229C33.0191 26.0162 32.5707 27.0585 31.7883 27.8223C31.006 28.5862 29.9532 29.0095 28.8598 28.9998Z" fill="white"/>
</svg>
