<svg width="108" height="108" viewBox="0 0 108 108" fill="none" xmlns="http://www.w3.org/2000/svg">
<circle cx="54" cy="54" r="54" fill="#2271C5"/>
<path d="M70.7154 41.5C70.1799 41.5 69.6661 41.711 69.2853 42.0874L63.9768 47.3328C62.3625 48.9279 59.625 47.7843 59.625 45.5149V43.4017C59.625 42.3514 58.7736 41.5 57.7233 41.5C57.2143 41.5 56.7265 41.7041 56.3692 42.0666L51.5004 47.0049C49.8958 48.6324 47.125 47.4962 47.125 45.2107V37.8056C47.125 36.3942 45.9808 35.25 44.5694 35.25H37.8056C36.3942 35.25 35.25 36.3942 35.25 37.8056V70.1944C35.25 71.6058 36.3942 72.75 37.8056 72.75H70.1944C71.6058 72.75 72.75 71.6058 72.75 70.1944V43.5346C72.75 42.4109 71.8391 41.5 70.7154 41.5ZM70.25 67.6944C70.25 69.1058 69.1058 70.25 67.6944 70.25H40.3056C38.8942 70.25 37.75 69.1058 37.75 67.6944V40.3056C37.75 38.8942 38.8942 37.75 40.3056 37.75H42.0694C43.4808 37.75 44.625 38.8942 44.625 40.3056V52.5992C44.625 53.718 45.532 54.625 46.6508 54.625C47.193 54.625 47.7126 54.4076 48.0933 54.0215L52.7496 49.2986C54.3542 47.6711 57.125 48.8073 57.125 51.0928V52.4783C57.125 53.6639 58.0861 54.625 59.2717 54.625C59.8366 54.625 60.3788 54.4023 60.7806 54.0053L65.8982 48.9485C67.5125 47.3534 70.25 48.4969 70.25 50.7663V67.6944Z" fill="white"/>
<path d="M44.625 59.625V60.25H47.125V57.75H44.625V59.625ZM44.625 63.375H47.125V65.875H44.625V63.375ZM50.875 59.625V60.25H53.375V57.75H50.875V59.625ZM50.875 63.375H53.375V65.875H50.875V63.375ZM57.125 59.625V60.25H59.625V57.75H57.125V59.625ZM57.125 63.375H59.625V65.875H57.125V63.375ZM63.375 57.75H65.875V60.25H63.375V57.75ZM63.375 63.375H65.875V65.875H63.375V63.375Z" fill="white"/>
</svg>
