<svg width="40" height="21" viewBox="0 0 40 21" fill="none" xmlns="http://www.w3.org/2000/svg">
<path d="M37.1032 0.470818L19.9336 17.2076L2.76393 0.470818C2.45716 0.171183 2.04536 0.00343505 1.61654 0.00343505C1.18772 0.00343505 0.775911 0.171183 0.469146 0.470818C0.320612 0.616352 0.202609 0.79006 0.122052 0.981771C0.0414938 1.17348 0 1.37934 0 1.58729C0 1.79524 0.0414938 2.0011 0.122052 2.19281C0.202609 2.38452 0.320612 2.55823 0.469146 2.70376L18.7346 20.5124C19.0554 20.825 19.4856 21 19.9336 21C20.3815 21 20.8117 20.825 21.1325 20.5124L39.398 2.7072C39.5475 2.56155 39.6664 2.38742 39.7476 2.19507C39.8288 2.00273 39.8706 1.79607 39.8706 1.58729C39.8706 1.37851 39.8288 1.17185 39.7476 0.979505C39.6664 0.787159 39.5475 0.613025 39.398 0.467381C39.0912 0.167746 38.6794 0 38.2506 0C37.8218 0 37.4099 0.167746 37.1032 0.467381V0.470818Z" fill="white"/>
</svg>
