<svg width="36" height="10" viewBox="0 0 36 10" fill="none" xmlns="http://www.w3.org/2000/svg">
<path d="M32.9291 0.858919L17.691 7.69026L2.45298 0.858919C2.18073 0.736619 1.81525 0.66815 1.43468 0.66815C1.0541 0.66815 0.688621 0.736619 0.416368 0.858919C0.284543 0.91832 0.179816 0.989221 0.108321 1.06747C0.0368258 1.14572 0 1.22974 0 1.31462C0 1.3995 0.0368258 1.48352 0.108321 1.56177C0.179816 1.64002 0.284543 1.71092 0.416368 1.77032L16.627 9.03914C16.9117 9.16675 17.2935 9.23818 17.691 9.23818C18.0886 9.23818 18.4704 9.16675 18.7551 9.03914L34.9657 1.77173C35.0984 1.71228 35.204 1.6412 35.276 1.5627C35.3481 1.48419 35.3852 1.39984 35.3852 1.31462C35.3852 1.22941 35.3481 1.14505 35.276 1.06655C35.204 0.988037 35.0984 0.916962 34.9657 0.857516C34.6934 0.735216 34.328 0.666748 33.9474 0.666748C33.5668 0.666748 33.2013 0.735216 32.9291 0.857516V0.858919Z" fill="white"/>
</svg>
