<svg width="375" height="868" fill="none" xmlns="http://www.w3.org/2000/svg"><g clip-path="url(#clip0_448_285)"><path fill-rule="evenodd" clip-rule="evenodd" d="M-77 868l25.25-15C-26.5 839 24 810 74.5 810s101 29 151.5 43c50.5 15 101 15 151.5 8 50.5-8 101-22 126.25-29l25.25-7V695H-77v173z" fill="#2D3074"/><path fill-rule="evenodd" clip-rule="evenodd" d="M-77 32.2l18.533-2.683c18.534-2.684 55.6-8.05 92.667 0s74.133 29.516 111.2 40.25C182.467 80.5 219.533 80.5 256.6 75.133c37.067-5.366 74.133-16.1 111.2-29.516C404.867 32.2 441.933 16.1 460.467 8.05L479 0v161H-77V32.2z" fill="url(#paint0_linear_448_285)"/><path d="M376 153H0v590h376V153z" fill="url(#paint1_linear_448_285)"/></g><defs><linearGradient id="paint0_linear_448_285" x1="201" y1="0" x2="201" y2="122.5" gradientUnits="userSpaceOnUse"><stop stop-color="#282963"/><stop offset="1" stop-color="#282A64"/></linearGradient><linearGradient id="paint1_linear_448_285" x1="188" y1="153" x2="188" y2="743" gradientUnits="userSpaceOnUse"><stop stop-color="#292A64"/><stop offset="1" stop-color="#2D3074"/></linearGradient><clipPath id="clip0_448_285"><path fill="#fff" d="M0 0h375v868H0z"/></clipPath></defs></svg>