<svg width="108" height="108" fill="none" xmlns="http://www.w3.org/2000/svg"><circle cx="54" cy="54" r="54" fill="#2271C5"/><path d="M65.429 55.24l2.731 5.48 5.84.879-4.286 4 1.102 5.92-5.387-3.33-5.388 3.33 1.102-5.92-4.286-4 6-.88 2.572-5.48zm-25.715-1.48h8.572v2.96h-8.572v-2.96zm0-5.92H54v2.96H39.714v-2.96zm0-5.92H54v2.96H39.714v-2.96z" fill="#fff"/><path d="M54 68.56H36.857v-29.6h34.286v14.8H74v-14.8c0-.785-.301-1.538-.837-2.093a2.808 2.808 0 00-2.02-.867H36.857c-.758 0-1.484.312-2.02.867A3.015 3.015 0 0034 38.96v29.6c0 .784.301 1.537.837 2.092a2.808 2.808 0 002.02.867H54v-2.96z" fill="#fff"/></svg>