<svg width="80" height="81" fill="none" xmlns="http://www.w3.org/2000/svg"><circle cx="40" cy="40.5" r="40" fill="#fff"/><path d="M18.272 39.362h19.635v3.273H18.272v-3.273zM15 31.181h16.362v3.272H15v-3.272z" fill="#2D3074"/><path d="M60.681 40.354L55.773 28.9a1.635 1.635 0 00-1.504-.991h-4.908v-3.273A1.637 1.637 0 0047.724 23H21.545v3.272h24.543v20.545a6.53 6.53 0 00-3.04 3.998H32.766a6.544 6.544 0 100 3.273h10.282a6.512 6.512 0 0012.625 0h3.505a1.636 1.636 0 001.636-1.636V40.998c0-.221-.045-.44-.133-.644zm-34.227 15.37a3.272 3.272 0 110-6.544 3.272 3.272 0 010 6.544zM49.36 31.181h3.828l3.508 8.181H49.36v-8.181zm0 24.543a3.273 3.273 0 110-6.545 3.273 3.273 0 010 6.545zm8.18-4.908h-1.868a6.537 6.537 0 00-6.313-4.91v-3.271h8.181v8.18z" fill="#2D3074"/></svg>