<svg width="80" height="81" fill="none" xmlns="http://www.w3.org/2000/svg"><circle cx="40" cy="40.5" r="40" fill="#fff"/><path d="M37.398 30.134l-6.09-7.03c-.702-.81-1.989-.806-2.804.012l-5.008 5.016c-1.49 1.492-1.917 3.708-1.055 5.485a52.572 52.572 0 0024.41 24.444c1.775.862 3.989.435 5.48-1.057l5.054-5.063c.819-.82.82-2.114.003-2.816l-7.056-6.056c-.738-.634-1.884-.551-2.624.19l-2.455 2.46a.832.832 0 01-.996.157 26.203 26.203 0 01-9.648-9.66.834.834 0 01.159-.997l2.448-2.45c.741-.745.822-1.897.181-2.637v.002z" stroke="#272674" stroke-width="3.538" stroke-linecap="round" stroke-linejoin="round"/></svg>