<svg width="25" height="25" fill="none" xmlns="http://www.w3.org/2000/svg"><path d="M4.899 0A4.913 4.913 0 000 4.899V20.1A4.913 4.913 0 004.899 25H20.1a4.913 4.913 0 004.9-4.899V4.9A4.913 4.913 0 0020.101 0H4.9zm2.804 5.64h4.931c1.024 0 1.803.038 2.33.119a4.41 4.41 0 011.486.49c.498.268.873.63 1.12 1.078.246.451.372.97.372 1.559 0 .68-.17 1.286-.513 1.817-.34.532-.81.923-1.408 1.175v.073c.86.183 1.552.55 2.07 1.11.519.561.778 1.316.778 2.264 0 .693-.131 1.305-.394 1.83a3.743 3.743 0 01-1.06 1.303 4.92 4.92 0 01-1.731.88c-.627.175-1.424.263-2.393.263H7.702V5.64zm3.488 2.56v2.954h.441c.599 0 1.022-.006 1.262-.019.24-.012.49-.077.746-.195.278-.131.473-.313.579-.544a1.95 1.95 0 00.16-.807c0-.226-.058-.457-.174-.694a1.036 1.036 0 00-.54-.516 2.172 2.172 0 00-.82-.166 50.11 50.11 0 00-1.41-.013h-.244zm0 5.345v3.495h.189c.912 0 1.542-.007 1.891-.02a2.943 2.943 0 001.069-.252c.32-.137.55-.34.698-.605.147-.266.22-.567.22-.902 0-.433-.085-.769-.261-1.012-.176-.246-.439-.429-.788-.554-.211-.083-.506-.128-.877-.137-.371-.01-.87-.013-1.494-.013h-.647z" fill="#fff"/></svg>