<svg width="80" height="81" fill="none" xmlns="http://www.w3.org/2000/svg"><circle cx="40" cy="40.5" r="40" fill="#fff"/><path d="M51.517 50.414a2.896 2.896 0 100-5.793 2.896 2.896 0 000 5.793z" fill="#2D3074"/><path d="M51.517 62l-6.921-9.272a8.595 8.595 0 01-1.768-5.21 8.69 8.69 0 0117.379 0 8.603 8.603 0 01-1.774 5.217L51.517 62zm0-20.276a5.8 5.8 0 00-5.793 5.793 5.73 5.73 0 001.188 3.472l4.605 6.17 4.6-6.163a5.74 5.74 0 001.193-3.479 5.8 5.8 0 00-5.793-5.793z" fill="#2D3074"/><path d="M52.965 24.345h-4.344v-1.448A2.905 2.905 0 0045.724 20H34.138a2.905 2.905 0 00-2.897 2.897v1.448h-4.344A2.905 2.905 0 0024 27.24v30.414a2.905 2.905 0 002.897 2.897H39.93v-2.897H26.897V27.241h4.344v4.345h17.38v-4.345h4.344v7.242h2.897V27.24a2.906 2.906 0 00-2.897-2.896zm-7.24 4.345H34.137v-5.793h11.586v5.793z" fill="#2D3074"/></svg>