<svg width="375" height="2184" fill="none" xmlns="http://www.w3.org/2000/svg"><g clip-path="url(#clip0_448_279)"><path fill-rule="evenodd" clip-rule="evenodd" d="M-164 2118.96l36.625-18.29c36.625-17.07 109.875-52.44 183.125-52.44s146.5 35.37 219.75 52.44c73.25 18.29 146.5 18.29 219.75 9.76 73.25-9.76 146.5-26.83 183.125-35.37l36.625-8.53V1908h-879v210.96z" fill="#24265B"/><path d="M376 512H-3v1396h379V512z" fill="url(#paint0_linear_448_279)"/><g clip-path="url(#clip1_448_279)" fill-rule="evenodd" clip-rule="evenodd"><path d="M-337 693.229l30.533-23.983c43.833-32.346 139.943-43.968 227.61-43.968 87.666 0 180.19 28.428 267.857 60.774 87.667 34.657 175.333 34.657 263 18.484 87.667-18.484 175.333-50.83 219.167-67.003L715 621.359V321H-337v372.229z" fill="#2271C5"/><path d="M-175 76.561l27.667-5.634c27.666-5.634 83-16.902 138.333 0s110.667 61.976 166 84.512c55.333 22.537 110.667 22.537 166 11.268 55.333-11.268 110.667-33.804 166-61.975 55.333-28.17 138.333-11.269 166-28.171V347h-830V76.561z" fill="url(#paint1_linear_448_279)"/></g></g><defs><linearGradient id="paint0_linear_448_279" x1="186.5" y1="512" x2="186.5" y2="1908" gradientUnits="userSpaceOnUse"><stop stop-color="#292B65"/><stop offset="1" stop-color="#24265B"/></linearGradient><linearGradient id="paint1_linear_448_279" x1="240" y1="8.951" x2="240" y2="266.162" gradientUnits="userSpaceOnUse"><stop stop-color="#2271C5"/><stop offset="1" stop-color="#2271C5"/></linearGradient><clipPath id="clip0_448_279"><path fill="#fff" d="M0 0h375v2184H0z"/></clipPath><clipPath id="clip1_448_279"><path fill="#fff" transform="translate(1 62)" d="M0 0h375v653H0z"/></clipPath></defs></svg>