<svg width="108" height="108" fill="none" xmlns="http://www.w3.org/2000/svg"><circle cx="54" cy="54" r="54" fill="#2271C5"/><path d="M64.917 68a10.83 10.83 0 00-2.297-11.781 5.387 5.387 0 00-1.491-6.07l3.817-3.816a2.753 2.753 0 000-3.89l-3.889-3.889a2.753 2.753 0 00-3.89 0L39.056 56.666a2.754 2.754 0 000 3.89l3.888 3.888a2.753 2.753 0 003.89 0L53.4 57.88a5.408 5.408 0 007.58.594A8.173 8.173 0 0161.868 68H52v5.5H35.5v2.75h33V68h-3.583zm-20.029-5.5L41 58.61l2.584-2.582 3.888 3.888-2.584 2.584zM52 54.25c.002.347.037.693.105 1.034l-2.689 2.688-3.888-3.888 13.585-13.585L63 44.387l-4.467 4.469A5.469 5.469 0 0052 54.25zM57.5 57a2.75 2.75 0 110-5.5 2.75 2.75 0 010 5.5zm8.25 16.5h-11v-2.75h11v2.75z" fill="#fff"/></svg>