<svg width="108" height="108" fill="none" xmlns="http://www.w3.org/2000/svg"><circle cx="54" cy="54" r="54" fill="#2271C5"/><path d="M70.715 41.5c-.535 0-1.049.211-1.43.587l-5.308 5.246c-1.614 1.595-4.352.451-4.352-1.818v-2.113a1.902 1.902 0 00-3.256-1.335L51.5 47.005c-1.604 1.627-4.375.491-4.375-1.794v-7.405a2.556 2.556 0 00-2.556-2.556h-6.763a2.556 2.556 0 00-2.556 2.556v32.388a2.556 2.556 0 002.556 2.556h32.388a2.556 2.556 0 002.556-2.556v-26.66c0-1.123-.91-2.034-2.035-2.034zm-.465 26.194a2.556 2.556 0 01-2.556 2.556H40.306a2.556 2.556 0 01-2.556-2.556V40.306a2.556 2.556 0 012.556-2.556h1.763a2.556 2.556 0 012.556 2.556v12.293a2.026 2.026 0 003.468 1.423l4.657-4.723c1.604-1.628 4.375-.492 4.375 1.794v1.385a2.147 2.147 0 003.656 1.527l5.117-5.056c1.615-1.596 4.352-.452 4.352 1.817v16.928z" fill="#fff"/><path d="M44.625 59.625v.625h2.5v-2.5h-2.5v1.875zm0 3.75h2.5v2.5h-2.5v-2.5zm6.25-3.75v.625h2.5v-2.5h-2.5v1.875zm0 3.75h2.5v2.5h-2.5v-2.5zm6.25-3.75v.625h2.5v-2.5h-2.5v1.875zm0 3.75h2.5v2.5h-2.5v-2.5zm6.25-5.625h2.5v2.5h-2.5v-2.5zm0 5.625h2.5v2.5h-2.5v-2.5z" fill="#fff"/></svg>