<svg width="1440" height="855" fill="none" xmlns="http://www.w3.org/2000/svg"><path fill="url(#paint0_linear_440_271)" d="M0 547h1440v141H0z"/><path fill-rule="evenodd" clip-rule="evenodd" d="M0 338.2l48-4.35c48-4.35 144-13.05 240 0s192 47.85 288 65.25 192 17.4 288 8.7 192-26.1 288-47.85 192-47.85 240-60.9l48-13.05v261H0V338.2z" fill="url(#paint1_linear_440_271)"/><path fill-rule="evenodd" clip-rule="evenodd" d="M0 855l60-15c60-14 180-43 300-43s240 29 360 43c120 15 240 15 360 8 120-8 240-22 300-29l60-7V682H0v173z" fill="#2D3074"/><path fill-rule="evenodd" clip-rule="evenodd" d="M0 46l48-3.833c48-3.834 144-11.5 240 0s192 42.166 288 57.5C672 115 768 115 864 107.333c96-7.666 192-23 288-42.166C1248 46 1344 23 1392 11.5L1440 0v230H0V46z" fill="url(#paint2_linear_440_271)"/><path fill-rule="evenodd" clip-rule="evenodd" d="M0 483l60-28.006c60-26.139 180-80.283 300-80.283s240 54.144 360 80.283C840 483 960 483 1080 469.931c120-14.937 240-41.076 300-54.145l60-13.069V160H0v323z" fill="#2271C5"/><defs><linearGradient id="paint0_linear_440_271" x1="720" y1="547" x2="720" y2="688" gradientUnits="userSpaceOnUse"><stop stop-color="#292A64"/><stop offset="1" stop-color="#2D3074"/></linearGradient><linearGradient id="paint1_linear_440_271" x1="720" y1="286" x2="720" y2="484.587" gradientUnits="userSpaceOnUse"><stop stop-color="#282963"/><stop offset="1" stop-color="#282A64"/></linearGradient><linearGradient id="paint2_linear_440_271" x1="720" y1="0" x2="720" y2="175" gradientUnits="userSpaceOnUse"><stop stop-color="#2271C5"/><stop offset="1" stop-color="#2271C5"/></linearGradient></defs></svg>